<svg width="179" height="50" viewBox="0 0 179 50" fill="none" xmlns="http://www.w3.org/2000/svg">
<g clip-path="url(#clip0_1_29327)">
<path d="M68.262 36.703H62.776L61.143 32.173H52.575L50.942 36.703H45.564L53.839 15.13H59.987L68.262 36.703ZM54.239 27.519H59.478L56.858 20.246L54.239 27.519Z" fill="white"/>
<path d="M86.3951 36.703H70.4031V15.13H75.5501V31.93H86.3951V36.703Z" fill="white"/>
<path d="M98.4009 14.729C99.9687 14.7113 101.525 14.9965 102.985 15.569C104.329 16.0973 105.554 16.8911 106.585 17.903C107.601 18.9126 108.4 20.1184 108.935 21.447C110.055 24.321 110.055 27.5109 108.935 30.385C108.4 31.7135 107.601 32.9194 106.585 33.929C105.554 34.9411 104.33 35.7349 102.985 36.263C100.031 37.3832 96.7696 37.3832 93.8159 36.263C92.4712 35.7349 91.2468 34.9411 90.2159 33.929C89.2002 32.9193 88.4007 31.7135 87.8659 30.385C86.7462 27.5108 86.7462 24.3211 87.8659 21.447C88.4008 20.1185 89.2003 18.9127 90.2159 17.903C91.247 16.8911 92.4714 16.0973 93.8159 15.569C95.2759 14.9963 96.8327 14.7111 98.4009 14.729ZM98.4009 19.66C97.5726 19.6514 96.7507 19.8056 95.9819 20.114C95.2644 20.4032 94.6167 20.8419 94.0819 21.401C93.5419 21.9728 93.1202 22.6457 92.8409 23.381C92.2452 25.0185 92.2452 26.8135 92.8409 28.451C93.1201 29.1863 93.5418 29.8592 94.0819 30.431C94.6167 30.99 95.2644 31.4287 95.9819 31.718C97.5404 32.3243 99.2695 32.3243 100.828 31.718C101.545 31.4283 102.193 30.9896 102.728 30.431C103.268 29.8592 103.69 29.1863 103.969 28.451C104.565 26.8135 104.565 25.0185 103.969 23.381C103.69 22.6457 103.268 21.9728 102.728 21.401C102.193 20.8423 101.545 20.4037 100.828 20.114C100.057 19.804 99.2319 19.6497 98.4009 19.66Z" fill="white"/>
<path d="M128.218 36.702H123.225V21.678L118.402 23.512V18.593L128.218 14.787V36.702Z" fill="white"/>
<path d="M145.846 19.722H137.401L137.309 23.112H139.435C140.558 23.0926 141.676 23.254 142.748 23.59C143.633 23.8692 144.453 24.3224 145.16 24.923C145.806 25.4845 146.312 26.1888 146.639 26.98C146.979 27.8163 147.149 28.7121 147.139 29.615C147.155 30.6845 146.945 31.7453 146.523 32.728C146.129 33.6297 145.543 34.4345 144.805 35.086C144.044 35.7491 143.161 36.2569 142.205 36.581C141.156 36.938 140.054 37.1152 138.946 37.105C138.149 37.1083 137.355 37.0333 136.573 36.881C135.851 36.7405 135.144 36.5316 134.462 36.257C133.824 36.0003 133.213 35.6828 132.636 35.309C132.097 34.9617 131.599 34.5559 131.149 34.099L133.63 30.431C133.933 30.7164 134.263 30.9719 134.616 31.194C135.459 31.7321 136.386 32.1252 137.359 32.357C137.869 32.4798 138.391 32.5419 138.915 32.542C139.738 32.6025 140.553 32.3492 141.196 31.833C141.452 31.5936 141.654 31.3017 141.787 30.9772C141.919 30.6527 141.981 30.3033 141.966 29.953C141.968 29.6248 141.903 29.2998 141.774 28.998C141.635 28.6876 141.414 28.4213 141.134 28.228C140.778 27.9863 140.381 27.8115 139.963 27.712C139.374 27.5715 138.769 27.5066 138.163 27.519H132.832L133.109 15.13H145.853L145.846 19.722Z" fill="white"/>
<path d="M156.385 14.744C157.475 14.7326 158.56 14.8832 159.606 15.191C160.514 15.4553 161.367 15.8807 162.125 16.447C162.813 16.9671 163.374 17.6361 163.766 18.404C164.164 19.1998 164.364 20.0794 164.352 20.969C164.379 22.0047 164.094 23.0247 163.535 23.897C162.959 24.7456 162.159 25.4179 161.224 25.839C162.262 26.2325 163.172 26.9011 163.859 27.773C164.493 28.6239 164.824 29.6629 164.799 30.724C164.823 31.7065 164.583 32.6775 164.105 33.536C163.646 34.329 163.014 35.0084 162.256 35.524C161.449 36.0697 160.552 36.4688 159.606 36.703C158.593 36.9618 157.551 37.0912 156.506 37.088C154.99 37.1136 153.483 36.8359 152.076 36.271C150.826 35.7629 149.719 34.9592 148.848 33.929L151.699 30.678C152.288 31.2929 152.996 31.7826 153.779 32.118C154.563 32.4524 155.407 32.6225 156.26 32.618C156.697 32.6204 157.133 32.5737 157.56 32.479C157.936 32.3984 158.295 32.255 158.623 32.055C158.916 31.8747 159.162 31.6263 159.339 31.331C159.518 31.02 159.609 30.6658 159.601 30.307C159.608 29.9505 159.503 29.6009 159.301 29.307C159.089 29.0097 158.813 28.7647 158.492 28.591C158.121 28.3886 157.721 28.2427 157.307 28.158C156.831 28.0581 156.345 28.0092 155.859 28.012H153.424V23.62H155.89C156.327 23.6228 156.764 23.5738 157.19 23.474C157.562 23.3897 157.918 23.2466 158.245 23.05C158.53 22.8772 158.77 22.6394 158.945 22.356C159.119 22.0624 159.207 21.726 159.199 21.385C159.207 21.0577 159.13 20.7339 158.976 20.445C158.822 20.1724 158.605 19.9401 158.344 19.767C158.05 19.5727 157.724 19.4319 157.381 19.351C156.982 19.2554 156.574 19.209 156.164 19.213C155.694 19.2089 155.225 19.2657 154.769 19.382C154.359 19.4892 153.962 19.639 153.583 19.829C153.23 20.006 152.899 20.2231 152.596 20.476C152.31 20.7158 152.045 20.9787 151.803 21.262L148.937 18.01C149.343 17.5335 149.794 17.0981 150.285 16.71C150.799 16.3048 151.357 15.9586 151.949 15.678C152.593 15.3738 153.27 15.1437 153.967 14.992C154.761 14.8207 155.572 14.7375 156.385 14.744Z" fill="white"/>
<path d="M170.785 2.19998H38.685C38.685 2.24598 38.685 2.29198 38.685 2.33798C38.6852 3.36023 38.432 4.36658 37.948 5.26698H170.785C171.356 5.26711 171.921 5.37966 172.448 5.59818C172.975 5.81671 173.454 6.13695 173.858 6.5406C174.261 6.94426 174.581 7.42343 174.8 7.95076C175.018 8.47809 175.13 9.04326 175.13 9.61398V42.207C175.13 42.7777 175.018 43.3429 174.8 43.8702C174.581 44.3975 174.261 44.8767 173.858 45.2804C173.454 45.684 172.975 46.0043 172.448 46.2228C171.921 46.4413 171.356 46.5539 170.785 46.554H39.439V49.621H170.785C172.75 49.6183 174.634 48.8363 176.023 47.4464C177.413 46.0565 178.194 44.1722 178.196 42.207V9.61398C178.194 7.64875 177.413 5.7645 176.023 4.3746C174.634 2.98469 172.75 2.20263 170.785 2.19998Z" fill="white"/>
<path d="M16.13 18.654L10.09 12.614C9.65694 12.1539 9.42009 11.5432 9.42973 10.9114C9.43937 10.2795 9.69473 9.67633 10.1417 9.22965C10.5886 8.78297 11.192 8.52795 11.8238 8.51868C12.4556 8.50941 13.0662 8.74661 13.526 9.17999L17.848 13.502L30.642 0.710988C31.1004 0.268593 31.7141 0.0238733 32.3511 0.0295143C32.9881 0.0351553 33.5974 0.290706 34.0479 0.741149C34.4983 1.19159 34.7539 1.8009 34.7595 2.4379C34.7652 3.0749 34.5204 3.68864 34.078 4.14699L19.569 18.654C19.3434 18.88 19.0753 19.0593 18.7803 19.1816C18.4852 19.304 18.1689 19.367 17.8495 19.367C17.5301 19.367 17.2139 19.304 16.9188 19.1816C16.6238 19.0593 16.3557 18.88 16.13 18.654Z" fill="white"/>
<path d="M33.9391 8.971L27.4911 15.419L24.3701 18.537L18.0011 24.906C17.9802 24.927 17.9553 24.9437 17.928 24.9551C17.9006 24.9664 17.8712 24.9723 17.8416 24.9723C17.8119 24.9723 17.7826 24.9664 17.7552 24.9551C17.7279 24.9437 17.703 24.927 17.6821 24.906L11.3201 18.54L9.94009 17.153L7.74609 14.959C7.20714 14.4268 6.77876 13.7932 6.48559 13.0948C6.19243 12.3964 6.04027 11.6469 6.03787 10.8895C6.03547 10.132 6.18288 9.38157 6.47161 8.68132C6.76034 7.98106 7.1847 7.34481 7.72026 6.80918C8.25583 6.27355 8.89203 5.84911 9.59225 5.56029C10.2925 5.27148 11.0429 5.12398 11.8003 5.12628C12.5578 5.12859 13.3073 5.28066 14.0057 5.57374C14.7042 5.86682 15.3378 6.29512 15.8701 6.834L17.6081 8.571C17.6389 8.60217 17.6755 8.62692 17.716 8.64381C17.7564 8.66071 17.7998 8.66941 17.8436 8.66941C17.8874 8.66941 17.9308 8.66071 17.9712 8.64381C18.0116 8.62692 18.0483 8.60217 18.0791 8.571L25.8151 0.835001C25.1788 0.714405 24.5327 0.653806 23.8851 0.654001C21.9632 0.651416 20.0798 1.19221 18.4521 2.214L18.3661 2.268L18.3401 2.284L18.3231 2.295L18.1831 2.386L18.0481 2.474L17.8481 2.605L17.6481 2.474L17.5151 2.388H17.5091L17.3701 2.3L17.3531 2.289L17.3271 2.273L17.2401 2.219C15.2845 0.994617 12.9727 0.466682 10.6795 0.720797C8.3863 0.974912 6.24615 1.99618 4.60609 3.619C2.68496 5.56329 1.61101 8.18865 1.61869 10.922C1.62637 13.6553 2.71506 16.2745 4.64709 18.208L6.63709 20.198L8.44809 22.011L17.0011 30.563C17.1126 30.6749 17.245 30.7636 17.3909 30.8242C17.5368 30.8848 17.6932 30.9159 17.8511 30.9159C18.009 30.9159 18.1654 30.8848 18.3113 30.8242C18.4571 30.7636 18.5896 30.6749 18.7011 30.563L27.3201 21.943L29.0601 20.2L31.1271 18.133C32.3081 16.9514 33.1818 15.4986 33.672 13.9015C34.1622 12.3045 34.2539 10.6117 33.9391 8.971Z" fill="white"/>
<path d="M8.36102 36.749L6.96902 37.517C6.83116 37.3094 6.6423 37.1408 6.42055 37.0271C6.1988 36.9135 5.95159 36.8587 5.70261 36.8681C5.45362 36.8774 5.21119 36.9505 4.99857 37.0804C4.78594 37.2103 4.61022 37.3926 4.48827 37.6099C4.36631 37.8271 4.30219 38.0721 4.30205 38.3213C4.30192 38.5704 4.36577 38.8154 4.48749 39.0328C4.60921 39.2503 4.78473 39.4328 4.99722 39.5629C5.2097 39.693 5.45204 39.7664 5.70102 39.776C5.9631 39.7794 6.22149 39.714 6.45046 39.5865C6.67943 39.4589 6.87098 39.2736 7.00602 39.049L8.29502 39.949C8.07606 40.2836 7.79024 40.5694 7.45551 40.7883C7.12079 41.0072 6.74441 41.1545 6.35002 41.221L5.95002 42.497H4.54802L4.98602 41.204C4.31453 41.0737 3.71196 40.7071 3.2876 40.1707C2.86324 39.6342 2.6452 38.9634 2.67302 38.28C2.65857 37.8777 2.72804 37.4768 2.877 37.1028C3.02596 36.7288 3.25115 36.3899 3.53824 36.1077C3.82533 35.8255 4.16802 35.6062 4.54451 35.4637C4.921 35.3212 5.32303 35.2586 5.72502 35.28C6.25622 35.2633 6.78197 35.3912 7.2462 35.6499C7.71043 35.9086 8.09574 36.2885 8.36102 36.749Z" fill="white"/>
<path d="M14.663 38.281C14.6743 38.8879 14.5047 39.4845 14.1757 39.9947C13.8467 40.5049 13.3733 40.9056 12.8157 41.1457C12.2581 41.3858 11.6417 41.4545 11.045 41.3429C10.4482 41.2314 9.89823 40.9448 9.46502 40.5195C9.03181 40.0942 8.73502 39.5496 8.61249 38.955C8.48995 38.3605 8.54721 37.7429 8.77697 37.181C9.00673 36.6191 9.39859 36.1383 9.90261 35.7999C10.4066 35.4615 11 35.2809 11.607 35.281C12.0084 35.2628 12.4092 35.3276 12.7845 35.4712C13.1598 35.6148 13.5014 35.8342 13.7881 36.1157C14.0749 36.3971 14.3005 36.7347 14.4511 37.1072C14.6016 37.4798 14.6737 37.8793 14.663 38.281ZM11.438 34.292C11.438 34.4587 11.3886 34.6217 11.296 34.7603C11.2033 34.8989 11.0717 35.007 10.9176 35.0708C10.7636 35.1346 10.5941 35.1513 10.4306 35.1188C10.267 35.0863 10.1168 35.006 9.99894 34.8881C9.88104 34.7702 9.80076 34.62 9.76823 34.4564C9.7357 34.2929 9.75239 34.1234 9.8162 33.9694C9.88 33.8153 9.98805 33.6837 10.1267 33.591C10.2653 33.4984 10.4283 33.449 10.595 33.449C10.7062 33.4474 10.8165 33.4681 10.9195 33.5098C11.0225 33.5516 11.1161 33.6137 11.1947 33.6923C11.2733 33.7709 11.3354 33.8645 11.3772 33.9675C11.4189 34.0705 11.4396 34.1808 11.438 34.292ZM10.182 38.281C10.1963 38.5597 10.292 38.8282 10.4573 39.0531C10.6227 39.278 10.8503 39.4495 11.1121 39.5463C11.3739 39.6432 11.6583 39.6611 11.9302 39.5979C12.2021 39.5347 12.4495 39.3932 12.6417 39.1908C12.834 38.9885 12.9627 38.7341 13.0118 38.4594C13.061 38.1846 13.0285 37.9015 12.9184 37.645C12.8083 37.3885 12.6253 37.1699 12.3923 37.0164C12.1592 36.8628 11.8862 36.7809 11.607 36.781C11.4121 36.7761 11.2183 36.8121 11.0382 36.8868C10.8581 36.9614 10.6956 37.073 10.5613 37.2144C10.427 37.3558 10.3239 37.5237 10.2585 37.7075C10.1932 37.8912 10.1671 38.0866 10.182 38.281ZM13.461 34.292C13.461 34.4587 13.4116 34.6218 13.3189 34.7604C13.2262 34.8991 13.0945 35.0071 12.9404 35.0709C12.7863 35.1347 12.6168 35.1513 12.4532 35.1187C12.2896 35.0861 12.1394 35.0057 12.0216 34.8877C11.9037 34.7697 11.8235 34.6194 11.7911 34.4558C11.7587 34.2922 11.7755 34.1227 11.8395 33.9687C11.9034 33.8147 12.0116 33.6831 12.1504 33.5906C12.2892 33.498 12.4523 33.4488 12.619 33.449C12.7301 33.4474 12.8404 33.4681 12.9434 33.5099C13.0463 33.5517 13.1399 33.6137 13.2184 33.6923C13.2969 33.771 13.3588 33.8645 13.4005 33.9675C13.4422 34.0705 13.4628 34.1809 13.461 34.292Z" fill="white"/>
<path d="M19.6621 36.621L16.9621 39.776H19.6621V41.176H14.8711V39.945L17.5711 36.79H14.8711V35.39H19.6621V36.621Z" fill="white"/>
<path d="M25.403 38.814C25.3803 39.4779 25.1005 40.107 24.6228 40.5687C24.1451 41.0303 23.5068 41.2883 22.8425 41.2883C22.1782 41.2883 21.5398 41.0303 21.0621 40.5687C20.5844 40.107 20.3047 39.4779 20.282 38.814V35.39H21.855V38.768C21.855 39.0297 21.959 39.2808 22.1441 39.4659C22.3292 39.651 22.5802 39.755 22.842 39.755C23.1037 39.755 23.3548 39.651 23.5399 39.4659C23.725 39.2808 23.829 39.0297 23.829 38.768V35.39H25.402L25.403 38.814ZM22.673 34.292C22.673 34.4587 22.6235 34.6218 22.5308 34.7604C22.4382 34.8991 22.3064 35.0071 22.1524 35.0709C21.9983 35.1347 21.8287 35.1513 21.6652 35.1187C21.5016 35.0861 21.3514 35.0057 21.2335 34.8877C21.1157 34.7697 21.0355 34.6194 21.0031 34.4558C20.9706 34.2922 20.9875 34.1227 21.0514 33.9687C21.1154 33.8147 21.2236 33.6831 21.3624 33.5906C21.5011 33.498 21.6642 33.4488 21.831 33.449C21.9421 33.4474 22.0524 33.4681 22.1553 33.5099C22.2583 33.5517 22.3518 33.6137 22.4303 33.6923C22.5089 33.771 22.5708 33.8645 22.6125 33.9675C22.6542 34.0705 22.6747 34.1809 22.673 34.292ZM24.696 34.292C24.6958 34.4585 24.6462 34.6212 24.5536 34.7595C24.461 34.8978 24.3294 35.0056 24.1755 35.0692C24.0216 35.1327 23.8524 35.1493 23.6891 35.1167C23.5258 35.0841 23.3759 35.0038 23.2582 34.886C23.1406 34.7682 23.0605 34.6182 23.0281 34.4549C22.9957 34.2916 23.0124 34.1223 23.0762 33.9685C23.1399 33.8147 23.2479 33.6833 23.3863 33.5908C23.5247 33.4983 23.6875 33.449 23.854 33.449C23.9651 33.4474 24.0754 33.4681 24.1783 33.5099C24.2813 33.5517 24.3748 33.6137 24.4533 33.6923C24.5319 33.771 24.5938 33.8645 24.6355 33.9675C24.6772 34.0705 24.6977 34.1809 24.696 34.292Z" fill="white"/>
<path d="M32.859 41.172H31.288V37.555L30.359 40.636H28.686L27.757 37.555V41.172H26.188V35.39H28.364L29.525 38.867L30.681 35.39H32.859V41.172Z" fill="white"/>
<path d="M6.67 49.62H5.1V46.002L4.171 49.082H2.499L1.57 46.002V49.62H0V43.838H2.176L3.337 47.315L4.493 43.838H6.669L6.67 49.62Z" fill="white"/>
<path d="M11.684 49.62H7.16602V43.838H11.684V45.238H8.73501V46.002H11.477V47.402H8.73501V48.232H11.684V49.62Z" fill="white"/>
<path d="M17.247 45.762C17.2612 46.1868 17.1146 46.6013 16.8365 46.9227C16.5585 47.2442 16.1694 47.4489 15.747 47.496L17.321 49.619H15.479L14.079 47.57H13.993V49.623H12.428V43.841H15.005C16.479 43.838 17.247 44.598 17.247 45.762ZM13.997 45.246V46.27H14.988C15.376 46.27 15.661 46.109 15.661 45.758C15.661 45.407 15.376 45.242 14.988 45.242L13.997 45.246Z" fill="white"/>
<path d="M19.961 47.406H19.515V49.619H17.948V43.837H19.517V46.009H19.971L21.429 43.837H23.337L21.243 46.658L23.523 49.619H21.593L19.961 47.406Z" fill="white"/>
<path d="M28.341 49.62H23.823V43.838H28.341V45.238H25.392V46.002H28.134V47.402H25.392V48.232H28.34L28.341 49.62Z" fill="white"/>
<path d="M33.7109 45.07L31.0109 48.225H33.7109V49.625H28.9199V48.394L31.6199 45.239H28.9199V43.839H33.7109V45.07Z" fill="white"/>
<path d="M35.904 44.409C35.9038 44.5755 35.8542 44.7382 35.7616 44.8765C35.6689 45.0148 35.5374 45.1226 35.3835 45.1862C35.2296 45.2497 35.0604 45.2663 34.8971 45.2337C34.7338 45.2011 34.5839 45.1208 34.4662 45.003C34.3486 44.8852 34.2685 44.7352 34.2361 44.5719C34.2037 44.4086 34.2204 44.2393 34.2842 44.0855C34.3479 43.9317 34.4558 43.8003 34.5943 43.7078C34.7327 43.6153 34.8955 43.566 35.062 43.566C35.1731 43.5644 35.2834 43.5851 35.3863 43.6269C35.4893 43.6687 35.5828 43.7307 35.6613 43.8093C35.7398 43.888 35.8018 43.9815 35.8435 44.0845C35.8852 44.1875 35.9057 44.2979 35.904 44.409ZM35.797 49.609H34.327V45.509H35.797V49.609Z" fill="white"/>
</g>
<defs>
<clipPath id="clip0_1_29327">
<rect width="178.196" height="49.62" fill="white"/>
</clipPath>
</defs>
</svg>
