<svg width="49" height="48" viewBox="0 0 49 48" fill="none" xmlns="http://www.w3.org/2000/svg">
<mask id="mask0_207_245" style="mask-type:luminance" maskUnits="userSpaceOnUse" x="0" y="0" width="49" height="48">
<path d="M48.5 0H0.5V48H48.5V0Z" fill="white"/>
</mask>
<g mask="url(#mask0_207_245)">
<path d="M24.5001 6.47917e-06C18.6378 -0.00429888 12.9767 2.13719 8.58492 6.02036C4.19317 9.90354 1.37456 15.2598 0.660955 21.0785C-0.052648 26.8972 1.38811 32.7759 4.71136 37.6052C8.0346 42.4346 13.0105 45.8806 18.7001 47.293V31.334H13.7541V24H18.7001V20.84C18.7001 12.671 22.4001 8.88502 30.4171 8.88502C32.172 8.9116 33.92 9.11257 35.6351 9.48499V16.133C35.0691 16.073 34.0851 16.044 32.8621 16.044C28.9271 16.044 27.4061 17.535 27.4061 21.41V24H35.2451L33.9001 31.334H27.4091V47.824C33.4786 47.0849 39.0371 44.0571 42.9499 39.3588C46.8628 34.6604 48.8349 28.6459 48.4636 22.5429C48.0924 16.4398 45.4058 10.7086 40.9524 6.51917C36.4989 2.32974 30.6144 -0.00198057 24.5001 6.47917e-06Z" fill="white"/>
</g>
</svg>
