<svg width="49" height="48" viewBox="0 0 49 48" fill="none" xmlns="http://www.w3.org/2000/svg">
<mask id="mask0_207_232" style="mask-type:luminance" maskUnits="userSpaceOnUse" x="0" y="0" width="49" height="48">
<path d="M48.5 0H0.5V48H48.5V0Z" fill="white"/>
</mask>
<g mask="url(#mask0_207_232)">
<path d="M44.947 -0.000169502H4.047C3.58686 -0.00638012 3.13001 0.0782136 2.70261 0.248762C2.2752 0.419311 1.88564 0.672475 1.55618 0.993757C1.22673 1.31504 0.963854 1.69812 0.782623 2.12111C0.601393 2.5441 0.505349 2.9987 0.5 3.45885V44.5308C0.510025 45.4608 0.889008 46.3487 1.55362 46.9992C2.21823 47.6498 3.11405 48.0097 4.04401 47.9998H44.944C45.8738 48.0111 46.7701 47.6533 47.4366 47.005C48.1031 46.3566 48.4855 45.4706 48.5 44.5408V3.45885C48.4871 2.52914 48.1056 1.64256 47.4394 0.993971C46.7732 0.345378 45.8767 -0.0121864 44.947 -0.000169502ZM14.741 40.8999H7.616V17.9908H14.741V40.8999ZM11.178 14.8658C10.3622 14.8658 9.56461 14.6239 8.88626 14.1706C8.20791 13.7174 7.67922 13.0732 7.367 12.3194C7.05479 11.5657 6.9731 10.7363 7.13226 9.93608C7.29143 9.13591 7.68428 8.40091 8.26117 7.82402C8.83806 7.24713 9.57309 6.85425 10.3733 6.69508C11.1734 6.53592 12.0028 6.61761 12.7566 6.92982C13.5103 7.24203 14.1546 7.77076 14.6078 8.44911C15.0611 9.12746 15.303 9.92498 15.303 10.7408C15.3033 11.8352 14.8688 12.8849 14.0953 13.659C13.3217 14.4331 12.2724 14.8683 11.178 14.8688V14.8658ZM41.4 40.8999H34.284V29.7658C34.284 27.1128 34.238 23.6908 30.584 23.6908C26.884 23.6908 26.319 26.5908 26.319 29.5778V40.8999H19.213V17.9908H26.037V21.1218H26.131C26.8134 19.9538 27.8 18.9928 28.9855 18.3412C30.171 17.6896 31.5111 17.3719 32.863 17.4218C40.072 17.4218 41.403 22.1658 41.403 28.3338V40.8999H41.4Z" fill="white"/>
</g>
</svg>
