<svg width="49" height="48" viewBox="0 0 49 48" fill="none" xmlns="http://www.w3.org/2000/svg">
<mask id="mask0_207_237" style="mask-type:luminance" maskUnits="userSpaceOnUse" x="0" y="0" width="49" height="48">
<path d="M48.5 0H0.5V48H48.5V0Z" fill="white"/>
</mask>
<g mask="url(#mask0_207_237)">
<path d="M24.5 4.32199C30.913 4.32199 31.672 4.35001 34.194 4.46201C35.7149 4.47761 37.2216 4.75708 38.647 5.28799C39.6809 5.68521 40.6199 6.29511 41.4032 7.07822C42.1864 7.86132 42.7966 8.80019 43.194 9.83401C43.7233 11.2598 44.0024 12.7662 44.019 14.287C44.131 16.819 44.159 17.578 44.159 23.981C44.159 30.384 44.131 31.153 44.019 33.675C44.0036 35.1959 43.7245 36.7025 43.194 38.128C42.7964 39.1618 42.1863 40.1008 41.403 40.884C40.6198 41.6673 39.6809 42.2774 38.647 42.675C37.2212 43.2043 35.7148 43.4834 34.194 43.5C31.663 43.613 30.903 43.641 24.5 43.641C18.097 43.641 17.328 43.613 14.806 43.5C13.2851 43.4845 11.7785 43.2053 10.353 42.675C9.31914 42.2774 8.38023 41.6673 7.59698 40.884C6.81374 40.1008 6.2036 39.1618 5.806 38.128C5.2767 36.7022 4.99758 35.1957 4.98099 33.675C4.86899 31.144 4.841 30.384 4.841 23.981C4.841 17.578 4.86899 16.809 4.98099 14.287C4.99652 12.7661 5.27567 11.2595 5.806 9.83401C6.20344 8.80019 6.81356 7.86132 7.59683 7.07822C8.38011 6.29511 9.31908 5.68521 10.353 5.28799C11.7787 4.75818 13.2852 4.47874 14.806 4.46201C17.328 4.35001 18.088 4.32199 24.5 4.32199ZM24.5 0C17.984 0 17.169 0.0279912 14.609 0.140991C12.6195 0.179596 10.651 0.556671 8.78799 1.25601C7.19321 1.87519 5.74458 2.81912 4.53403 4.02795C3.32347 5.23679 2.37745 6.68411 1.75601 8.27802C1.05768 10.1416 0.680645 12.1102 0.640991 14.1C0.527991 16.669 0.5 17.484 0.5 24C0.5 30.516 0.527991 31.331 0.640991 33.891C0.679716 35.8809 1.05679 37.8496 1.75601 39.713C2.37363 41.3074 3.31715 42.7554 4.52628 43.9644C5.7354 45.1733 7.18353 46.1166 8.77802 46.734C10.6416 47.4327 12.6102 47.8101 14.6 47.85C17.159 47.962 17.975 47.991 24.491 47.991C31.007 47.991 31.822 47.962 34.381 47.85C36.3709 47.811 38.3397 47.4336 40.203 46.734C41.7959 46.1182 43.2425 45.1763 44.4502 43.9688C45.6579 42.7613 46.5999 41.3148 47.216 39.722C47.9143 37.8584 48.2913 35.8898 48.331 33.9C48.444 31.341 48.472 30.525 48.472 24.009C48.472 17.493 48.444 16.678 48.331 14.119C48.2923 12.1291 47.9152 10.1604 47.216 8.297C46.6371 6.68438 45.6975 5.22529 44.469 4.03101C43.2718 2.81081 41.8223 1.8671 40.222 1.26599C38.3584 0.567285 36.3898 0.189929 34.4 0.149994C31.831 0.0279939 31.016 0 24.5 0Z" fill="white"/>
<path d="M24.4999 11.6719C22.0616 11.6719 19.6782 12.3949 17.6508 13.7495C15.6235 15.1041 14.0434 17.0295 13.1103 19.2822C12.1772 21.5348 11.9331 24.0135 12.4088 26.4049C12.8844 28.7963 14.0586 30.993 15.7827 32.7171C17.5068 34.4412 19.7034 35.6153 22.0948 36.091C24.4862 36.5667 26.9649 36.3225 29.2176 35.3895C31.4702 34.4564 33.3956 32.8763 34.7502 30.8489C36.1049 28.8216 36.8279 26.4381 36.8279 23.9999C36.8271 20.7305 35.528 17.5953 33.2162 15.2835C30.9044 12.9718 27.7692 11.6727 24.4999 11.6719ZM24.4999 31.9999C22.9176 31.9999 21.3709 31.5307 20.0553 30.6516C18.7397 29.7726 17.7144 28.5231 17.1089 27.0613C16.5034 25.5995 16.3449 23.991 16.6536 22.4391C16.9623 20.8873 17.7242 19.4618 18.843 18.343C19.9618 17.2242 21.3873 16.4623 22.9392 16.1536C24.491 15.8449 26.0995 16.0034 27.5613 16.6089C29.0232 17.2144 30.2726 18.2397 31.1516 19.5553C32.0307 20.8709 32.4999 22.4176 32.4999 23.9999C32.4999 26.1216 31.657 28.1564 30.1567 29.6567C28.6565 31.157 26.6216 31.9999 24.4999 31.9999Z" fill="white"/>
<path d="M40.1935 11.1841C40.1935 11.7534 40.0247 12.3098 39.7085 12.7831C39.3923 13.2564 38.9428 13.6252 38.4169 13.8431C37.891 14.0609 37.3123 14.1179 36.754 14.0069C36.1958 13.8958 35.683 13.6217 35.2805 13.2192C34.878 12.8167 34.6038 12.3039 34.4928 11.7456C34.3817 11.1874 34.4388 10.6087 34.6566 10.0828C34.8744 9.55691 35.2433 9.10741 35.7166 8.79117C36.1899 8.47493 36.7463 8.30615 37.3155 8.30615C38.0787 8.30642 38.8106 8.60971 39.3503 9.14938C39.89 9.68906 40.1932 10.4209 40.1935 11.1841Z" fill="white"/>
</g>
</svg>
