<svg width="49" height="49" viewBox="0 0 49 49" fill="none" xmlns="http://www.w3.org/2000/svg">
<mask id="mask0_238_472" style="mask-type:luminance" maskUnits="userSpaceOnUse" x="0" y="0" width="49" height="49">
<path d="M48.9375 0.0107422H0.9375V48.0107H48.9375V0.0107422Z" fill="white"/>
</mask>
<g mask="url(#mask0_238_472)">
<path d="M24.9375 4.33273C31.3505 4.33273 32.1095 4.36075 34.6315 4.47275C36.1524 4.48836 37.6591 4.76783 39.0845 5.29874C40.1184 5.69595 41.0574 6.30586 41.8407 7.08896C42.6239 7.87206 43.2341 8.81093 43.6315 9.84476C44.1608 11.2705 44.4399 12.777 44.4565 14.2977C44.5685 16.8297 44.5965 17.5887 44.5965 23.9917C44.5965 30.3947 44.5685 31.1637 44.4565 33.6857C44.4411 35.2066 44.162 36.7133 43.6315 38.1387C43.2339 39.1726 42.6238 40.1115 41.8405 40.8948C41.0573 41.678 40.1184 42.2881 39.0845 42.6857C37.6587 43.215 36.1523 43.4941 34.6315 43.5107C32.1005 43.6237 31.3405 43.6517 24.9375 43.6517C18.5345 43.6517 17.7655 43.6237 15.2435 43.5107C13.7226 43.4952 12.216 43.2161 10.7905 42.6857C9.75664 42.2881 8.81773 41.678 8.03448 40.8948C7.25124 40.1115 6.6411 39.1726 6.2435 38.1387C5.7142 36.713 5.43508 35.2065 5.41849 33.6857C5.30649 31.1547 5.2785 30.3947 5.2785 23.9917C5.2785 17.5887 5.30649 16.8197 5.41849 14.2977C5.43402 12.7769 5.71317 11.2702 6.2435 9.84476C6.64094 8.81093 7.25106 7.87206 8.03433 7.08896C8.81761 6.30586 9.75658 5.69595 10.7905 5.29874C12.2162 4.76892 13.7227 4.48948 15.2435 4.47275C17.7655 4.36075 18.5255 4.33273 24.9375 4.33273ZM24.9375 0.0107422C18.4215 0.0107422 17.6065 0.0387334 15.0465 0.151733C13.057 0.190338 11.0885 0.567413 9.22549 1.26675C7.63071 1.88593 6.18208 2.82986 4.97153 4.0387C3.76097 5.24753 2.81495 6.69486 2.19351 8.28876C1.49518 10.1524 1.11815 12.121 1.07849 14.1107C0.965491 16.6797 0.9375 17.4947 0.9375 24.0107C0.9375 30.5267 0.965491 31.3417 1.07849 33.9017C1.11722 35.8916 1.49429 37.8604 2.19351 39.7238C2.81113 41.3182 3.75465 42.7661 4.96378 43.9751C6.1729 45.1841 7.62103 46.1274 9.21552 46.7448C11.0791 47.4435 13.0477 47.8208 15.0375 47.8607C17.5965 47.9727 18.4125 48.0018 24.9285 48.0018C31.4445 48.0018 32.2595 47.9727 34.8185 47.8607C36.8084 47.8217 38.7772 47.4444 40.6405 46.7448C42.2334 46.1289 43.68 45.1871 44.8877 43.9796C46.0954 42.772 47.0374 41.3255 47.6535 39.7327C48.3518 37.8691 48.7288 35.9005 48.7685 33.9108C48.8815 31.3518 48.9095 30.5357 48.9095 24.0197C48.9095 17.5037 48.8815 16.6887 48.7685 14.1297C48.7298 12.1399 48.3527 10.1711 47.6535 8.30774C47.0746 6.69512 46.135 5.23603 44.9065 4.04175C43.7093 2.82155 42.2598 1.87784 40.6595 1.27673C38.7959 0.578027 36.8273 0.200672 34.8375 0.160736C32.2685 0.0387361 31.4535 0.0107422 24.9375 0.0107422Z" fill="black"/>
<path d="M24.9374 11.6826C22.4991 11.6826 20.1157 12.4056 18.0883 13.7603C16.061 15.1149 14.4809 17.0403 13.5478 19.2929C12.6147 21.5456 12.3706 24.0243 12.8463 26.4157C13.3219 28.8071 14.4961 31.0037 16.2202 32.7278C17.9443 34.4519 20.1409 35.6261 22.5323 36.1017C24.9237 36.5774 27.4024 36.3333 29.6551 35.4002C31.9077 34.4671 33.8331 32.887 35.1877 30.8597C36.5424 28.8324 37.2654 26.4489 37.2654 24.0106C37.2646 20.7413 35.9655 17.6061 33.6537 15.2943C31.3419 12.9825 28.2067 11.6834 24.9374 11.6826ZM24.9374 32.0106C23.3551 32.0106 21.8084 31.5414 20.4928 30.6624C19.1772 29.7833 18.1519 28.5339 17.5464 27.0721C16.9409 25.6103 16.7824 24.0017 17.0911 22.4499C17.3998 20.898 18.1617 19.4726 19.2805 18.3538C20.3993 17.2349 21.8248 16.473 23.3767 16.1643C24.9285 15.8557 26.537 16.0141 27.9988 16.6196C29.4607 17.2251 30.7101 18.2505 31.5891 19.5661C32.4682 20.8817 32.9374 22.4284 32.9374 24.0106C32.9374 26.1324 32.0945 28.1672 30.5942 29.6675C29.094 31.1678 27.0591 32.0106 24.9374 32.0106Z" fill="black"/>
<path d="M40.631 11.1949C40.631 11.7641 40.4622 12.3205 40.146 12.7938C39.8298 13.2671 39.3803 13.636 38.8544 13.8538C38.3285 14.0717 37.7498 14.1287 37.1915 14.0176C36.6333 13.9066 36.1205 13.6324 35.718 13.2299C35.3155 12.8275 35.0413 12.3147 34.9303 11.7564C34.8192 11.1981 34.8763 10.6194 35.0941 10.0935C35.3119 9.56765 35.6808 9.11815 36.1541 8.80191C36.6274 8.48567 37.1838 8.31689 37.753 8.31689C38.5162 8.31716 39.2481 8.62045 39.7878 9.16013C40.3275 9.6998 40.6307 10.4317 40.631 11.1949Z" fill="black"/>
</g>
</svg>
