<svg width="1036" height="250" viewBox="0 0 1036 250" fill="none" xmlns="http://www.w3.org/2000/svg">
<g clip-path="url(#clip0_1011_48)">
<path d="M790 98.5892V65.0947H799.336V98.0978C799.336 107.106 803.431 111.446 812.275 111.446C821.12 111.446 825.132 107.188 825.132 98.0978V65.0947H834.059V98.5892C834.059 113.084 826.934 120.127 812.029 120.127C797.125 120.127 790 113.084 790 98.5892Z" fill="#1D428A"/>
<path d="M842.494 63.8663L851.338 61V119.144H842.494V63.8663Z" fill="#1D428A"/>
<path d="M856.743 108.908C856.743 101.619 861.739 97.1971 870.092 97.1971C873.368 97.1971 876.725 97.9341 880.001 99.3263V98.4255C880.001 92.6929 877.462 90.2361 871.484 90.2361C866.898 90.2361 862.967 91.7102 859.773 94.4946V86.469C863.049 84.0122 867.635 82.7019 872.876 82.7019C883.44 82.7019 888.845 87.6974 888.845 97.6065V119.145H882.294L881.066 114.64C878.281 118.162 874.023 120.127 868.945 120.127C861.329 120.127 856.743 115.787 856.743 108.908ZM879.997 108.171V105.632C877.54 104.322 874.838 103.585 871.889 103.585C867.467 103.585 865.338 105.305 865.338 108.335C865.338 111.365 867.303 113.084 871.234 113.084C874.919 113.084 877.786 111.447 879.997 108.171Z" fill="#1D428A"/>
<path d="M893.919 116.852V108.58C897.277 111.365 902.026 112.839 907.431 112.839C912.263 112.839 914.638 111.61 914.638 109.072C914.638 107.024 912.918 106.123 908.742 105.386L904.238 104.567C897.113 103.257 894.083 99.7358 894.083 94.2489C894.083 86.7966 899.406 82.7019 908.987 82.7019C913.819 82.7019 918.241 83.6846 920.944 85.4044V93.5937C917.75 91.3007 913.573 89.9904 909.069 89.9904C904.565 89.9904 902.6 91.3007 902.6 93.5937C902.6 95.4773 904.074 96.2962 908.25 97.0333L912.754 97.8522C919.634 99.1625 923.155 102.356 923.155 108.58C923.155 116.196 917.914 120.127 907.513 120.127C901.945 120.127 896.949 118.899 893.919 116.852Z" fill="#1D428A"/>
<path d="M928.56 83.6846H937.404V119.144H928.56V83.6846Z" fill="#1D428A"/>
<path d="M945.839 83.6846H952.391L953.455 88.762C956.404 84.6674 960.089 82.7019 965.084 82.7019C970.08 82.7019 973.765 84.8311 975.649 88.9258C978.761 84.5036 982.691 82.7019 987.441 82.7019C995.385 82.7019 999.562 87.5336 999.562 96.8695V119.145H990.717V97.9341C990.717 93.2662 988.588 90.9731 984.821 90.9731C981.627 90.9731 978.924 92.7748 977.123 96.1324V119.145H968.278V97.9341C968.278 93.1843 966.149 90.9731 962.546 90.9731C958.942 90.9731 956.486 93.0205 954.684 96.7057V119.145H945.839V83.6846Z" fill="#1D428A"/>
<path d="M807.853 186.461V178.19C811.211 180.974 815.96 182.448 821.365 182.448C826.197 182.448 828.572 181.22 828.572 178.681C828.572 176.634 826.852 175.733 822.676 174.996L818.172 174.177C811.047 172.867 808.017 169.345 808.017 163.858C808.017 156.406 813.34 152.311 822.921 152.311C827.753 152.311 832.175 153.294 834.878 155.014V163.203C831.684 160.91 827.507 159.6 823.003 159.6C818.499 159.6 816.534 160.91 816.534 163.203C816.534 165.087 818.008 165.906 822.184 166.643L826.689 167.462C833.568 168.772 837.089 171.966 837.089 178.19C837.089 185.806 831.848 189.737 821.447 189.737C815.879 189.737 810.883 188.508 807.853 186.461Z" fill="#1D428A"/>
<path d="M843.558 178.353V160.664H837.498V153.294H843.722L843.886 145.432L852.403 140.928V153.294H862.639V160.664H852.403V176.552C852.403 179.991 853.959 181.629 857.234 181.629C859.118 181.629 860.756 181.056 862.639 179.909V187.935C860.592 189.163 858.217 189.737 855.269 189.737C847.571 189.737 843.558 185.888 843.558 178.353Z" fill="#1D428A"/>
<path d="M864.929 178.517C864.929 171.229 869.924 166.806 878.277 166.806C881.553 166.806 884.911 167.543 888.186 168.936V168.035C888.186 162.302 885.648 159.845 879.67 159.845C875.084 159.845 871.153 161.32 867.959 164.104V156.078C871.235 153.622 875.821 152.311 881.062 152.311C891.626 152.311 897.031 157.307 897.031 167.216V188.754H890.479L889.251 184.25C886.467 187.771 882.208 189.737 877.131 189.737C869.515 189.737 864.929 185.396 864.929 178.517ZM888.186 177.78V175.241C885.73 173.931 883.027 173.194 880.079 173.194C875.657 173.194 873.528 174.914 873.528 177.944C873.528 180.974 875.493 182.694 879.424 182.694C883.109 182.694 885.975 181.056 888.186 177.78Z" fill="#1D428A"/>
<path d="M904.647 153.294H911.198L912.263 158.617C915.293 154.277 919.224 152.311 924.301 152.311C932.245 152.311 936.585 157.225 936.585 166.561V188.754H927.741V167.707C927.741 162.957 925.776 160.583 921.845 160.583C917.914 160.583 915.375 162.794 913.491 166.643V188.754H904.647V153.294Z" fill="#1D428A"/>
<path d="M951.981 184.086L950.999 188.754H944.447V134.704L953.292 130.61V156.897C955.912 153.949 959.516 152.311 964.184 152.311C974.093 152.311 981.299 159.764 981.299 171.065C981.299 182.366 974.257 189.737 963.938 189.737C958.779 189.737 954.93 187.853 951.981 184.086ZM972.291 171.065C972.291 164.595 968.36 160.337 962.3 160.337C958.451 160.337 955.257 162.139 953.292 165.169V176.879C955.257 179.991 958.369 181.711 962.3 181.711C968.36 181.711 972.291 177.453 972.291 171.065Z" fill="#1D428A"/>
<path d="M986.786 175.487V153.294H995.631V174.341C995.631 179.172 997.596 181.465 1001.53 181.465C1005.46 181.465 1008.08 179.336 1009.88 175.487V153.294H1018.72V188.754H1012.17L1011.11 183.513C1008.08 187.771 1004.15 189.737 999.07 189.737C991.126 189.737 986.786 184.823 986.786 175.487Z" fill="#1D428A"/>
<path d="M1027.16 130.61H1036V188.754H1027.16V130.61Z" fill="#1D428A"/>
<path d="M800.728 134.704H791.392V142.075L800.728 140.846V134.704Z" fill="#1D428A"/>
<path d="M791.392 147.856V188.754H800.728V146.628L791.392 147.856Z" fill="#1D428A"/>
<path d="M907.829 131.387C901.834 131.387 897.248 128.927 894.906 127.33C893.505 126.376 893.141 124.463 894.095 123.063C895.049 121.663 896.961 121.298 898.362 122.252C900.315 123.583 904.369 125.729 909.593 125.143C912.914 124.775 915.473 123.411 917.037 122.334C918.434 121.372 920.346 121.724 921.308 123.12C922.27 124.517 921.918 126.429 920.522 127.391C917.451 129.508 913.905 130.843 910.273 131.248C909.434 131.342 908.619 131.383 907.829 131.383V131.387Z" fill="#1D428A"/>
</g>
<mask id="mask0_1011_48" style="mask-type:luminance" maskUnits="userSpaceOnUse" x="0" y="0" width="250" height="250">
<path d="M250 0H0V250H250V0Z" fill="white"/>
</mask>
<g mask="url(#mask0_1011_48)">
<mask id="mask1_1011_48" style="mask-type:luminance" maskUnits="userSpaceOnUse" x="0" y="0" width="250" height="250">
<path d="M250 0H0V250H250V0Z" fill="white"/>
</mask>
<g mask="url(#mask1_1011_48)">
<path d="M66.3774 165.351L66.0677 168.614C65.4298 168.359 64.8101 168.149 64.2086 168.003C63.917 167.939 63.6255 167.885 63.3339 167.848C63.0514 167.812 62.7689 167.794 62.4864 167.794C61.6389 167.794 60.9735 167.93 60.4906 168.204C60.0167 168.477 59.7706 168.851 59.7706 169.316C59.7706 169.644 59.8892 169.926 60.1353 170.181C60.3722 170.427 60.7458 170.637 61.2379 170.81L61.9396 171.029C63.7439 171.603 64.9467 172.122 65.5391 172.578C66.0858 172.997 66.496 173.48 66.7511 174.045C67.0154 174.61 67.1429 175.257 67.1429 175.995C67.1429 177.727 66.5598 179.048 65.4116 179.977C64.2543 180.898 62.5775 181.363 60.3904 181.363C59.6159 181.363 58.823 181.308 58.021 181.199C57.2191 181.089 56.4264 180.925 55.6336 180.697L55.9889 177.18C56.727 177.517 57.447 177.772 58.1487 177.945C58.4859 178.027 58.823 178.091 59.1601 178.137C59.4973 178.182 59.8254 178.2 60.1353 178.2C60.9554 178.2 61.6114 178.046 62.0944 177.736C62.5774 177.426 62.8235 176.998 62.8235 176.469C62.8235 175.813 62.0489 175.221 60.5179 174.674L59.6614 174.373C58.1669 173.835 57.0915 173.216 56.4445 172.496C55.7975 171.776 55.4694 170.865 55.4694 169.735C55.4694 168.158 56.0345 166.946 57.1736 166.08C58.3127 165.224 59.9346 164.786 62.0488 164.786C62.8507 164.786 63.5982 164.832 64.2907 164.932C64.6553 164.978 65.0014 165.033 65.3386 165.096C65.6758 165.16 66.0222 165.251 66.3685 165.351M77.1396 168.359H81.0582V180.998H85.2684V168.359H89.1867V165.197H77.1396V168.359ZM107.667 174.637H103.64L105.69 168.723L107.667 174.637ZM97.2334 180.989H101.407L102.583 177.645H108.661L109.782 180.989H114.283L108.305 165.187H103.23L97.2334 180.989ZM124.061 180.989H127.862V172.651C127.862 172.377 127.852 172.04 127.825 171.648C127.798 171.256 127.779 170.892 127.743 170.573C127.688 170.017 127.643 169.562 127.597 169.215C127.552 168.869 127.497 168.45 127.415 167.967C127.597 168.65 127.77 169.224 127.925 169.698C128.126 170.254 128.326 170.746 128.536 171.165L133.293 180.989H138.523V165.187H134.723V174.136C134.723 174.637 134.751 175.23 134.814 175.895C134.878 176.56 134.979 177.289 135.106 178.073C134.979 177.69 134.851 177.317 134.723 176.925C134.55 176.405 134.45 176.095 134.414 175.995C134.195 175.385 134.013 174.938 133.867 174.665L129.292 165.197H124.034V180.998L124.061 180.989ZM156.384 174.364C157.195 174.364 157.797 174.519 158.207 174.829C158.617 175.139 158.818 175.585 158.818 176.186C158.818 176.788 158.59 177.271 158.143 177.59C157.697 177.909 157.041 178.073 156.193 178.073H154.535V174.364H156.384ZM156.02 168.04C156.831 168.04 157.442 168.185 157.852 168.468C158.271 168.75 158.471 169.179 158.471 169.744C158.471 170.363 158.253 170.819 157.806 171.12C157.369 171.421 156.703 171.566 155.81 171.566H154.535V168.04H156.011H156.02ZM150.425 180.989H156.567C158.772 180.989 160.403 180.634 161.469 179.914C162.526 179.203 163.055 178.1 163.055 176.615C163.055 175.612 162.763 174.792 162.18 174.136C161.597 173.48 160.768 173.061 159.692 172.86C160.658 172.596 161.387 172.159 161.889 171.557C162.39 170.956 162.645 170.199 162.645 169.279C162.645 167.921 162.162 166.901 161.196 166.217C160.23 165.534 158.79 165.187 156.886 165.187H150.416V180.989H150.425ZM174.337 174.382C174.337 176.697 174.902 178.437 176.041 179.604C177.171 180.77 178.847 181.353 181.071 181.353C183.295 181.353 185.017 180.779 186.138 179.622C187.259 178.465 187.814 176.724 187.814 174.382V165.187H183.805V174.382C183.805 175.64 183.577 176.587 183.112 177.234C182.647 177.881 181.964 178.21 181.071 178.21C180.178 178.21 179.549 177.909 179.148 177.298C178.747 176.688 178.547 175.722 178.547 174.382V165.187H174.337V174.382ZM199.679 180.989H210.241V177.872H203.899V165.197H199.688V180.998L199.679 180.989ZM39.759 163.784H43.9692V161.679H39.759V163.784ZM39.759 180.989H43.9692V165.187H39.759V180.989ZM19.6744 209.166C20.6494 210.259 21.1416 211.644 21.1416 213.312C21.1416 215.791 20.2577 217.631 18.4808 218.825C16.7129 220.019 13.979 220.62 10.2792 220.62H0V194.184H10.8259C14.0154 194.184 16.4122 194.758 18.0342 195.907C19.6563 197.055 20.4582 198.768 20.4582 201.037C20.4582 202.577 20.0391 203.844 19.1916 204.855C18.3532 205.858 17.1229 206.587 15.51 207.033C17.3052 207.371 18.6993 208.081 19.6744 209.175M6.89844 204.855H9.03981C10.5252 204.855 11.646 204.6 12.3841 204.099C13.1223 203.598 13.487 202.832 13.487 201.802C13.487 200.855 13.1406 200.144 12.448 199.67C11.7554 199.196 10.7258 198.95 9.37709 198.95H6.89844V204.855ZM14.061 212.583C14.061 211.581 13.7239 210.824 13.0404 210.305C12.357 209.794 11.3454 209.53 9.98758 209.53H6.89844V215.745H9.66854C11.0901 215.745 12.1837 215.472 12.931 214.934C13.6782 214.396 14.061 213.613 14.061 212.583ZM64.7008 205.347L59.4153 194.184H51.4143L60.9008 210.797V220.62H67.945V210.724L77.5497 194.184H69.9589L64.6917 205.347H64.7008ZM96.2309 209.576C96.2309 211.672 95.8483 213.266 95.0646 214.351C94.29 215.435 93.1509 215.982 91.6473 215.982C90.1437 215.982 89.0957 215.472 88.4305 214.46C87.7562 213.44 87.428 211.817 87.428 209.585V194.193H80.3838V209.576C80.3838 213.449 81.3317 216.356 83.2271 218.306C85.1226 220.256 87.9293 221.24 91.6473 221.24C95.3654 221.24 98.2539 220.274 100.131 218.333C101.999 216.401 102.938 213.476 102.938 209.576V194.193H96.2309V209.585V209.576ZM99.5389 188.316H92.8409V191.842H99.5389V188.316ZM90.4809 188.316H83.7829V191.842H90.4809V188.316ZM36.1321 188.316H29.4343V191.842H36.1321V188.316ZM41.8823 209.576C41.8823 211.672 41.4904 213.266 40.7159 214.351C39.9413 215.435 38.8022 215.982 37.2986 215.982C35.795 215.982 34.747 215.472 34.0817 214.46C33.4074 213.44 33.0795 211.817 33.0795 209.585V194.193H26.0262V209.576C26.0262 213.449 26.9738 216.356 28.8692 218.306C30.7647 220.256 33.5714 221.24 37.2894 221.24C41.0075 221.24 43.8963 220.274 45.7735 218.333C47.6416 216.401 48.5803 213.476 48.5803 209.576V194.193H41.8732V209.585L41.8823 209.576ZM45.1813 188.316H38.4833V191.842H45.1813V188.316ZM132.6 194.184H124.717L116.534 205.612V194.184H109.49V220.62H116.534V208.355L124.845 220.62H133.602L122.886 206.332L132.591 194.184H132.6ZM167.511 209.503H178.191V204.473H167.511V199.142H178.82V194.193H160.467V220.63H179.248V215.526H167.511V209.503ZM200.545 204.281H192.316V194.184H185.272V220.62H192.316V209.576H200.545V220.62H207.589V194.184H200.545V204.281ZM214.196 191.833H221.24V188.307H214.196V191.833ZM214.196 220.62H221.24V194.184H214.196V220.62ZM250 220.62H242.646L240.322 213.385C239.949 212.228 239.448 211.426 238.81 210.97C238.172 210.514 237.16 210.296 235.784 210.296H234.763V220.62H227.865V194.184H238.381C241.89 194.184 244.487 194.749 246.173 195.879C247.859 197.009 248.706 198.741 248.706 201.074C248.706 202.778 248.26 204.172 247.376 205.275C246.492 206.377 245.198 207.124 243.494 207.516C244.87 208.027 245.99 209.466 246.838 211.854L250 220.63V220.62ZM241.808 202.295C241.808 201.101 241.379 200.226 240.532 199.67C239.684 199.114 238.345 198.832 236.504 198.832H234.754V205.612H237.224C238.764 205.612 239.912 205.338 240.659 204.782C241.416 204.227 241.79 203.397 241.79 202.295M152.721 206.541C151.728 205.785 149.723 204.919 146.698 203.953L145.522 203.58C144.693 203.297 144.073 202.942 143.672 202.532C143.271 202.112 143.071 201.629 143.071 201.092C143.071 200.308 143.472 199.688 144.265 199.233C145.066 198.777 146.178 198.54 147.6 198.54C148.074 198.54 148.548 198.577 149.021 198.631C149.495 198.695 149.987 198.777 150.479 198.886C151.482 199.132 152.521 199.479 153.587 199.907L154.106 194.449C153.523 194.275 152.949 194.13 152.384 194.02C151.819 193.911 151.236 193.82 150.625 193.738C149.459 193.574 148.21 193.492 146.871 193.492C143.335 193.492 140.619 194.212 138.715 195.651C136.81 197.091 135.862 199.133 135.862 201.766C135.862 203.643 136.409 205.183 137.494 206.377C138.578 207.58 140.373 208.628 142.87 209.521L144.301 210.022C146.88 210.934 148.165 211.927 148.165 213.02C148.165 213.913 147.755 214.624 146.944 215.144C146.133 215.663 145.039 215.927 143.663 215.927C143.144 215.927 142.597 215.891 142.032 215.818C141.467 215.745 140.902 215.636 140.337 215.499C139.17 215.217 137.968 214.788 136.728 214.214L136.136 220.11C137.466 220.484 138.797 220.757 140.136 220.948C140.884 221.049 141.631 221.122 142.369 221.167L142.086 224.138H148.784L149.122 220.584C150.443 220.201 151.591 219.664 152.511 218.935C154.443 217.367 155.409 215.144 155.409 212.246C155.409 211.016 155.191 209.931 154.753 208.983C154.316 208.036 153.632 207.216 152.721 206.523M51.6786 242.783C52.2618 243.439 52.5534 244.259 52.5534 245.261C52.5534 246.747 52.0248 247.84 50.9586 248.56C49.9015 249.271 48.2613 249.636 46.0561 249.636H39.9049V233.825H46.3749C48.2794 233.825 49.7192 234.171 50.6852 234.855C51.6511 235.538 52.1342 236.568 52.1342 237.926C52.1342 238.846 51.879 239.611 51.3778 240.204C50.8766 240.805 50.1385 241.243 49.1726 241.507C50.2479 241.707 51.0771 242.136 51.6603 242.783M44.033 240.204H45.3087C46.2018 240.204 46.867 240.049 47.3044 239.748C47.7509 239.447 47.9696 238.992 47.9696 238.372C47.9696 237.807 47.7601 237.379 47.35 237.096C46.9308 236.814 46.3202 236.668 45.5092 236.668H44.0239V240.204H44.033ZM48.316 244.833C48.316 244.232 48.1154 243.776 47.7053 243.466C47.2952 243.156 46.6938 243.001 45.8827 243.001H44.033V246.71H45.6914C46.548 246.71 47.1951 246.546 47.6417 246.227C48.0882 245.908 48.316 245.435 48.316 244.824M64.1995 242.983H70.5876V239.976H64.1995V236.786H70.9611V233.825H59.9804V249.636H71.2163V246.583H64.1995V242.983ZM83.5733 233.825H79.3542V249.636H89.9249V246.51H83.5733V233.816V233.825ZM101.07 242.983H107.458V239.976H101.07V236.786H107.832V233.825H96.8507V249.636H108.087V246.583H101.07V242.983ZM129.903 237.734C130.486 238.864 130.778 240.167 130.778 241.644C130.778 243.275 130.477 244.66 129.866 245.799C129.256 246.938 128.326 247.877 127.059 248.615C126.44 248.97 125.647 249.235 124.672 249.399C124.207 249.472 123.633 249.535 122.959 249.581C122.284 249.626 121.546 249.645 120.754 249.645H115.741V233.834H121.282C122.74 233.834 123.952 233.925 124.918 234.107C125.884 234.29 126.677 234.572 127.296 234.946C128.445 235.684 129.31 236.613 129.903 237.743M126.458 241.644C126.458 240.131 126.039 238.955 125.2 238.126C124.362 237.297 123.159 236.878 121.592 236.878H119.988V246.473H121.811C123.296 246.473 124.435 246.054 125.246 245.207C126.057 244.368 126.458 243.175 126.458 241.644ZM154.817 240.505L151.655 233.825H146.871L152.548 243.758V249.636H156.767V243.712L162.508 233.816H157.97L154.817 240.495V240.505ZM172.578 242.983H178.966V239.976H172.578V236.786H179.34V233.825H168.359V249.636H179.595V246.583H172.578V242.983ZM196.927 241.215C196.335 240.76 195.132 240.249 193.328 239.666L192.626 239.447C192.125 239.274 191.76 239.065 191.523 238.819C191.286 238.573 191.159 238.281 191.159 237.953C191.159 237.488 191.396 237.115 191.879 236.841C192.353 236.568 193.018 236.431 193.874 236.431C194.157 236.431 194.439 236.449 194.722 236.486C195.004 236.522 195.296 236.577 195.597 236.641C196.198 236.787 196.818 236.996 197.456 237.251L197.766 233.989C197.419 233.889 197.073 233.798 196.736 233.734C196.399 233.67 196.043 233.615 195.688 233.57C194.995 233.47 194.239 233.424 193.446 233.424C191.332 233.424 189.71 233.852 188.571 234.718C187.432 235.584 186.867 236.796 186.867 238.372C186.867 239.493 187.195 240.413 187.842 241.133C188.489 241.853 189.564 242.473 191.059 243.011L191.915 243.311C193.455 243.858 194.23 244.45 194.23 245.106C194.23 245.644 193.984 246.063 193.501 246.373C193.018 246.683 192.362 246.838 191.542 246.838C191.232 246.838 190.904 246.811 190.566 246.774C190.229 246.738 189.892 246.665 189.555 246.583C188.862 246.41 188.142 246.154 187.395 245.817L187.04 249.344C187.833 249.563 188.625 249.736 189.427 249.845C190.229 249.955 191.013 250.009 191.797 250.009C193.993 250.009 195.67 249.544 196.827 248.624C197.984 247.704 198.558 246.373 198.558 244.642C198.558 243.904 198.431 243.257 198.167 242.692C197.902 242.127 197.501 241.634 196.945 241.224M137.421 249.636H141.631V233.825H137.421V249.636ZM137.421 232.422H141.631V230.316H137.421V232.422ZM205.876 232.422H210.086V230.316H205.876V232.422ZM205.876 249.636H210.086V233.825H205.876V249.636ZM96.8689 97.0146V92.9595H92.8227V97.0146H88.7767V92.9595H84.7215V97.0146H80.6664V92.9595H76.6112V97.0146C76.6112 122.986 97.0693 144.173 122.749 145.34V125.055C108.26 123.906 96.8689 111.796 96.8689 97.0146ZM169.334 92.9595H173.389V97.0146C173.389 122.986 152.931 144.173 127.251 145.34V125.055C141.74 123.906 153.131 111.796 153.131 97.0146V92.9595H157.186V97.0146H161.232V92.9595H165.288V97.0146H169.343V92.9595H169.334ZM101.361 74.3694H76.7022C78.06 68.8106 83.063 64.6916 89.0319 64.6916C95.0007 64.6916 100.004 68.8197 101.361 74.3694ZM148.639 74.3694C149.987 68.8106 154.999 64.6916 160.968 64.6916C166.937 64.6916 171.94 68.8197 173.298 74.3694H148.639ZM101.361 89.6242H72.1276C73.7315 83.0356 79.6639 78.1421 86.7445 78.1421C93.8252 78.1421 99.7576 83.0356 101.361 89.6242ZM163.255 78.1421C170.336 78.1421 176.269 83.0356 177.872 89.6242H148.629C150.233 83.0356 156.166 78.1421 163.246 78.1421M148.62 97.3154V60.9645L151.992 57.611V54.2393H148.62V40.6247L145.239 20.367L141.868 40.6247V54.2393H135.115V40.5975L138.496 37.2439V33.8722H135.115V20.2577L131.744 0L128.363 20.2577V33.8722H121.61V20.2577L118.229 0L114.858 20.2577V33.8722H111.477V37.2439L114.858 40.5975V54.2393H108.105V40.6247L104.733 20.367L101.361 40.6247V54.2393H97.9807V57.611L101.361 60.9645V97.0055C101.361 110.055 111.941 120.635 124.991 120.635C138.04 120.635 148.447 110.219 148.611 97.3154M144.219 100.733H131.443L137.831 89.6698L144.219 100.733ZM135.124 60.9645L138.505 57.611L141.877 60.9645V80.475C139.936 78.4976 137.658 76.8572 135.124 75.6543V60.9645ZM131.415 78.5521L137.804 89.6242H125.027L131.415 78.5521ZM121.628 40.6066L125 37.2531L128.372 40.6066V54.2484H121.619V40.6066H121.628ZM121.628 60.9645L125 57.611L128.372 60.9645V73.6222C127.269 73.4673 126.139 73.3761 125 73.3761C123.861 73.3761 122.731 73.4673 121.628 73.6222V60.9645ZM118.585 78.5521L124.973 89.6242H112.196L118.585 78.5521ZM108.123 60.9645L111.495 57.611L114.876 60.9645V75.6543C112.342 76.8572 110.064 78.4976 108.123 80.475V60.9645ZM105.781 100.733L112.169 89.6698L118.557 100.733H105.781ZM112.196 111.85L118.585 100.778L124.973 111.85H112.196ZM118.612 100.733L125 89.6698L131.388 100.733H118.612ZM125.027 111.85L131.415 100.778L137.804 111.85H125.027Z" fill="#1D428A"/>
</g>
</g>
<rect x="300" width="4" height="250" fill="#1D428A"/>
<rect x="735" width="4" height="250" fill="#1D428A"/>
<path d="M388.475 50V70.875C388.475 80.45 382.675 85.65 373.15 85.65C363.625 85.65 357.85 80.45 357.85 70.875V50H366.225V70.55C366.225 75.35 368.975 77.625 373.15 77.625C377.35 77.625 380.1 75.35 380.1 70.55V50H388.475ZM420.453 77.25V85H394.503V50H402.853V77.25H420.453ZM445.253 50L458.678 85H449.778L447.128 77.65H433.228L430.578 85H421.853L435.278 50H445.253ZM440.178 58.3L435.928 70.1H444.428L440.178 58.3ZM489.869 53.075L486.144 59.925C483.644 58.425 480.219 56.975 476.119 56.975C472.944 56.975 470.619 58.05 470.619 60.125C470.619 62.325 473.944 62.85 477.819 63.525L479.269 63.775C486.069 64.95 490.344 68.125 490.344 73.85C490.344 80.675 485.544 84.225 479.694 85.3L477.269 93.025H469.594L472.169 85.45C467.619 84.975 463.369 83.55 460.269 81.2L464.444 74.4C467.119 76.225 470.819 78.075 475.744 78.075C478.894 78.075 481.294 77 481.294 74.825C481.294 72.725 478.944 72.125 474.369 71.425L472.619 71.15C465.419 70.025 461.519 66.775 461.644 60.475C461.769 53.675 467.569 49.375 475.744 49.375C480.469 49.375 484.569 50.15 489.869 53.075ZM503.781 50V85H495.431V50H503.781ZM549.703 50V85H541.353V61.05L534.353 81.7H525.478L518.478 61.125V85H510.128V50H521.953L529.928 72.225L537.853 50H549.703ZM358.175 113H373.15C384.1 113 391.325 119.95 391.325 130.5C391.325 141.05 384.1 148 373.15 148H358.175V113ZM372.975 120.725H366.525V140.275H372.975C379.475 140.275 382.6 136.15 382.6 130.5C382.6 124.775 379.475 120.725 372.975 120.725ZM414.491 113L427.916 148H419.016L416.366 140.65H402.466L399.816 148H391.091L404.516 113H414.491ZM409.416 121.3L405.166 133.1H413.666L409.416 121.3ZM439.718 113V148H431.368V113H439.718ZM434.943 101.2C437.718 101.2 439.868 103.375 439.868 106.15C439.868 108.9 437.718 111.025 434.943 111.025C432.168 111.025 430.043 108.9 430.043 106.15C430.043 103.375 432.168 101.2 434.943 101.2ZM446.066 113H461.291C469.941 113 474.541 117.3 474.541 124.2C474.541 129.75 471.041 133.65 464.766 134.65L474.816 148H464.866L455.641 134.9H454.416V148H446.066V113ZM461.191 120.575H454.416V127.875H461.191C464.191 127.875 466.041 126.7 466.041 124.2C466.041 121.725 464.141 120.575 461.191 120.575ZM506.557 140.475V148H479.757V113H506.457V120.525H488.107V126.575H505.382V134.075H488.107V140.475H506.557ZM540.406 116.075L536.681 122.925C534.181 121.425 530.756 119.975 526.656 119.975C523.481 119.975 521.156 121.05 521.156 123.125C521.156 125.325 524.481 125.85 528.356 126.525L529.806 126.775C536.606 127.95 540.881 131.125 540.881 136.85C540.881 145.175 533.706 148.65 526.206 148.65C520.381 148.65 514.681 147.125 510.806 144.2L514.981 137.4C517.656 139.225 521.356 141.075 526.281 141.075C529.431 141.075 531.831 140 531.831 137.825C531.831 135.725 529.481 135.125 524.906 134.425L523.156 134.15C515.956 133.025 512.056 129.775 512.181 123.475C512.306 116.675 518.106 112.375 526.281 112.375C531.006 112.375 535.106 113.15 540.406 116.075ZM554.318 113V148H545.968V113H554.318ZM549.543 101.2C552.318 101.2 554.468 103.375 554.468 106.15C554.468 108.9 552.318 111.025 549.543 111.025C546.768 111.025 544.643 108.9 544.643 106.15C544.643 103.375 546.768 101.2 549.543 101.2ZM358.175 176H373.225C382.075 176 386.675 179.475 386.675 185.9C386.675 189.35 384.65 192.05 381.85 193.3C384.95 194.4 387.4 197.4 387.4 200.975C387.4 207.4 382.975 211 374.1 211H358.175V176ZM373.675 196.9H366.525V204H373.675C376.9 204 378.775 203.05 378.775 200.425C378.775 197.875 376.9 196.9 373.675 196.9ZM373.025 183.025H366.525V189.925H373.025C376.025 189.925 377.975 189.05 377.975 186.45C377.975 183.9 376.025 183.025 373.025 183.025ZM411.903 176L425.328 211H416.428L413.778 203.65H399.878L397.228 211H388.503L401.928 176H411.903ZM406.828 184.3L402.578 196.1H411.078L406.828 184.3ZM456.52 179.075L452.795 185.925C450.295 184.425 446.87 182.975 442.77 182.975C439.595 182.975 437.27 184.05 437.27 186.125C437.27 188.325 440.595 188.85 444.47 189.525L445.92 189.775C452.72 190.95 456.995 194.125 456.995 199.85C456.995 206.675 452.195 210.225 446.345 211.3L443.92 219.025H436.245L438.82 211.45C434.27 210.975 430.02 209.55 426.92 207.2L431.095 200.4C433.77 202.225 437.47 204.075 442.395 204.075C445.545 204.075 447.945 203 447.945 200.825C447.945 198.725 445.595 198.125 441.02 197.425L439.27 197.15C432.07 196.025 428.17 192.775 428.295 186.475C428.42 179.675 434.22 175.375 442.395 175.375C447.12 175.375 451.22 176.15 456.52 179.075ZM484.406 211L473.381 197.15H470.431V211H462.081V176H470.431V189.625H473.456L483.506 176H493.781L480.206 193.075L494.906 211H484.406ZM518.446 176L531.871 211H522.971L520.321 203.65H506.421L503.771 211H495.046L508.471 176H518.446ZM513.371 184.3L509.121 196.1H517.621L513.371 184.3ZM567.648 176V211H559.623L543.673 189.65V211H535.323V176H543.323L559.273 197.35V176H567.648ZM599.945 203.25V211H573.995V176H582.345V203.25H599.945ZM612.082 176V211H603.732V176H612.082ZM635.604 175.35C641.154 175.35 645.579 177.25 648.629 180.425L642.679 186.275C640.929 184.4 638.454 183.2 635.204 183.2C629.604 183.2 625.579 187.4 625.579 193.5C625.579 200.225 630.029 204 635.229 204C640.204 204 643.104 201.8 644.079 197.675H635.554V191.225H652.354C652.479 192.15 652.529 193 652.529 193.85C652.529 205.05 644.529 211.625 635.529 211.625C625.104 211.625 616.979 204.425 616.979 193.5C616.979 182.875 624.704 175.35 635.604 175.35ZM625.029 165.55L630.804 163.925C631.529 166.475 632.904 167.775 634.954 167.775C637.004 167.775 638.379 166.475 639.104 163.925L644.879 165.55C643.604 170.8 640.054 173.825 634.954 173.825C629.879 173.825 626.329 170.8 625.029 165.55ZM665.793 176V211H657.443V176H665.793Z" fill="#1D428A"/>
<defs>
<clipPath id="clip0_1011_48">
<rect width="246" height="128.737" fill="white" transform="translate(790 61)"/>
</clipPath>
</defs>
</svg>
